PathFileType	4	(x/y/z)	S05_P20_T22
DataRate	CameraRate	NumFrames	NumMarkers	Units	OrigDataRate	OrigDataStartFrame	OrigNumFrames
240	240	4	50	mm	240	196	391
Frame#	Time	Sternum			R.Acromium			L.Acromium			Top.Head			R.ASIS			L.ASIS			R.PSIS			L.PSIS			R.Great.Tro			L.Great.Tro			R.Iliac.Crest			L.Iliac.Crest			V.Sacral			R.Thigh.Upper.Post			R.Thigh.Lower.Ant			R.Thigh.Lower.Post			R.Thigh.Upper.Ant			R.Knee.Lat			R.Knee.Med			R.Shank.Upper.Post			R.Shank.Lower.Ant			R.Shank.Lower.Post			R.Shank.Upper.Ant			R.Ankle.Lat			R.Ankle.Med			R.Heel.Upper			R.Heel.Med			R.Heel.Lat			R.Toe.Lat			R.Toe.Med			R.Toe.Tip			L.Thigh.Upper.Post			L.Thigh.Lower.Ant			L.Thigh.Lower.Post			L.Thigh.Upper.Ant			L.Knee.Lat			L.Shank.Upper.Post			L.Shank.Lower.Ant			L.Shank.Lower.Post			L.Shank.Upper.Ant			L.Ankle.Lat			L.Ankle.Med			L.Heel.Upper			L.Heel.Med			L.Heel.Lat			L.Toe.Lat			L.Toe.Med			L.Toe.Tip			Cervical.Spine			Back			
		X1	Y1	Z1	X2	Y2	Z2	X3	Y3	Z3	X4	Y4	Z4	X5	Y5	Z5	X6	Y6	Z6	X7	Y7	Z7	X8	Y8	Z8	X9	Y9	Z9	X10	Y10	Z10	X11	Y11	Z11	X12	Y12	Z12	X13	Y13	Z13	X14	Y14	Z14	X15	Y15	Z15	X16	Y16	Z16	X17	Y17	Z17	X18	Y18	Z18	X19	Y19	Z19	X20	Y20	Z20	X21	Y21	Z21	X22	Y22	Z22	X23	Y23	Z23	X24	Y24	Z24	X25	Y25	Z25	X26	Y26	Z26	X27	Y27	Z27	X28	Y28	Z28	X29	Y29	Z29	X30	Y30	Z30	X31	Y31	Z31	X32	Y32	Z32	X33	Y33	Z33	X34	Y34	Z34	X35	Y35	Z35	X36	Y36	Z36	X37	Y37	Z37	X38	Y38	Z38	X39	Y39	Z39	X40	Y40	Z40	X41	Y41	Z41	X42	Y42	Z42	X43	Y43	Z43	X44	Y44	Z44	X45	Y45	Z45	X46	Y46	Z46	X47	Y47	Z47	X48	Y48	Z48	X49	Y49	Z49	X50	Y50	Z50	

196	0.8125	NaN	NaN	NaN	-386.67	1533.2	506.37	-421.25	1556.3	183.84	-415.57	1837.3	342.76	NaN	NaN	NaN	-375.39	1027.4	216.13	-582.51	1035.8	375.29	-579.28	1033.9	284.3	-467.18	938.29	523.17	-448.36	944.1	135.72	-472.36	1102.4	502.77	-469.17	1099.9	169.36	-593.18	1000.1	343.36	-409.5	710.04	508.84	-357.7	640.13	453.45	-423.41	624.24	483.88	-348.7	726.11	479.27	NaN	NaN	NaN	-410.03	502.07	358.34	-529.92	294.34	445.65	-475.52	224.39	444.14	-538.01	220.4	426.92	-466.64	299.9	461.04	-495.64	122.42	423.18	-491.68	150.39	337.95	-568.67	75.363	362.09	-560.87	43.175	334.42	-561.44	48.066	399.49	-397.85	34.015	455.79	-360.78	40.706	336.8	-297.21	56.825	385.04	-339.8	728.88	127.22	-236.03	697.67	149.9	-288.25	648.76	138.47	-279.23	777.57	139.23	-255.17	570.94	146.09	-398.72	430.5	170.92	-368.39	347.46	167.89	-433	368.63	190.94	-338.34	409.85	152.4	-475.28	238.1	204.34	-423.89	232.02	281.71	-539.72	221.93	270.59	-536.52	193.99	301.35	-557.02	199.06	243.52	-416.59	107.85	157.26	-367.64	103.06	266.56	-324.07	85.431	202.07	-458.74	1577.1	356.77	-570.88	1303.7	351.07
197	0.81667	NaN	NaN	NaN	-381.18	1533.6	506.33	-416.08	1556.4	183.81	-410.08	1837.5	342.35	NaN	NaN	NaN	-370.04	1027.7	216.57	-577.06	1036	375.39	-573.79	1034.1	284.41	-462.21	938.45	523.26	-442.56	944.48	135.75	-466.91	1102.6	502.96	-463.69	1100.2	169.55	-587.72	1000.4	343.45	-406.32	709.98	508.66	-354.99	639.65	453.37	-420.86	624.28	483.76	-345.34	725.56	479.21	NaN	NaN	NaN	-408.15	501.07	359.57	-529.19	294.68	445.45	-475.35	224.68	444.07	-537.51	220.77	426.72	-465.89	300.05	460.88	-495.41	122.55	423.06	-491.41	150.55	337.8	-568.59	75.547	361.98	-560.8	43.305	334.35	-561.35	48.257	399.4	-397.81	34.052	455.76	-360.74	40.653	336.69	-297.01	56.618	385.04	-332.99	729.83	127.29	-229.12	699.11	150.3	-281.08	649.95	138.71	-272.68	778.82	139.51	-247.85	571.92	146.6	-388.37	427.75	171.6	-355.92	345.49	168.25	-420.96	364.99	191.6	-327.56	408.69	152.78	-459.95	233.48	204.81	-407.94	228.43	281.87	-523.59	215.23	271.24	-519.53	187.28	301.86	-540.42	192.05	244.22	-397.83	105.07	157.03	-348.3	101.28	266.16	-303.97	85.264	201.3	-453.39	1577.2	356.75	-565.42	1303.8	351.47
198	0.82083	NaN	NaN	NaN	-375.7	1534	506.28	-410.88	1556.4	183.77	-404.6	1837.7	341.93	NaN	NaN	NaN	-364.68	1028	217	-571.61	1036.2	375.48	-568.28	1034.2	284.49	-457.24	938.57	523.35	-436.77	944.79	135.78	-461.48	1102.7	503.15	-458.2	1100.4	169.74	-582.26	1000.6	343.54	-403.12	709.9	508.48	-352.26	639.16	453.28	-418.29	624.3	483.63	-341.97	725	479.13	NaN	NaN	NaN	-406.3	500.12	360.71	-528.46	295.03	445.25	-475.16	224.97	443.99	-536.96	221.13	426.52	-465.14	300.21	460.72	-495.17	122.69	422.94	-491.12	150.71	337.63	-568.51	75.736	361.85	-560.73	43.435	334.27	-561.26	48.451	399.31	-397.78	34.086	455.74	-360.7	40.609	336.59	-296.82	56.402	385.05	-326.31	730.65	127.41	-222.35	700.36	150.69	-274.09	650.97	139	-266.22	779.89	139.78	-240.73	572.75	147.12	-378.04	424.85	172.28	-343.46	343.45	168.59	-408.88	361.23	192.25	-316.84	407.41	153.15	-444.48	228.79	205.25	-391.87	224.82	282	-507.24	208.47	271.86	-502.29	180.53	302.33	-523.58	184.98	244.9	-378.94	102.32	156.77	-328.86	99.597	265.73	-283.8	85.182	200.52	-448.05	1577.4	356.73	-559.95	1303.9	351.85
199	0.825	NaN	NaN	NaN	-370.22	1534.3	506.22	-405.66	1556.3	183.72	-399.14	1837.8	341.5	NaN	NaN	NaN	-359.33	1028.1	217.42	-566.14	1036.4	375.55	-562.77	1034.3	284.56	-452.25	938.65	523.44	-430.98	945.04	135.81	-456.06	1102.7	503.33	-452.68	1100.5	169.91	-576.78	1000.7	343.6	-399.91	709.8	508.3	-349.52	638.66	453.18	-415.69	624.31	483.5	-338.59	724.42	479.06	NaN	NaN	NaN	-404.47	499.25	361.74	-527.71	295.38	445.06	-474.96	225.25	443.91	-536.35	221.47	426.32	-464.36	300.37	460.56	-494.93	122.83	422.83	-490.8	150.86	337.46	-568.43	75.927	361.72	-560.65	43.566	334.18	-561.17	48.648	399.21	-397.74	34.117	455.71	-360.67	40.573	336.51	-296.64	56.179	385.05	-319.77	731.33	127.56	-215.74	701.41	151.07	-267.28	651.82	139.33	-259.86	780.78	140.04	-233.8	573.4	147.64	-367.73	421.79	172.94	-331.01	341.33	168.9	-396.78	357.34	192.89	-306.18	406.02	153.5	-428.87	224.05	205.66	-375.69	221.2	282.1	-490.67	201.66	272.44	-484.82	173.78	302.77	-506.49	177.87	245.54	-359.93	99.617	156.48	-309.32	98.013	265.28	-263.6	85.2	199.72	-442.7	1577.5	356.69	-554.46	1304	352.2
